<svg xmlns="http://www.w3.org/2000/svg" xmlns:xlink="http://www.w3.org/1999/xlink" width="500" zoomAndPan="magnify" viewBox="0 0 375 374.999991" height="500" preserveAspectRatio="xMidYMid meet" version="1.0"><defs><g/><clipPath id="711a33e18f"><path d="M 81.113281 224.273438 L 114.820312 224.273438 L 114.820312 281.878906 L 81.113281 281.878906 Z M 81.113281 224.273438 " clip-rule="nonzero"/></clipPath><clipPath id="a562654405"><path d="M 187.5 138.390625 L 240.671875 138.390625 L 240.671875 191.5625 L 187.5 191.5625 Z M 187.5 138.390625 " clip-rule="nonzero"/></clipPath><clipPath id="9813f86542"><path d="M 214.085938 138.390625 C 199.402344 138.390625 187.5 150.292969 187.5 164.976562 C 187.5 179.660156 199.402344 191.5625 214.085938 191.5625 C 228.769531 191.5625 240.671875 179.660156 240.671875 164.976562 C 240.671875 150.292969 228.769531 138.390625 214.085938 138.390625 Z M 214.085938 138.390625 " clip-rule="nonzero"/></clipPath><clipPath id="7b18d52dac"><path d="M 271.949219 218.398438 L 325.167969 218.398438 L 325.167969 253.074219 L 271.949219 253.074219 Z M 271.949219 218.398438 " clip-rule="nonzero"/></clipPath><clipPath id="9a742f6f33"><path d="M 86.929688 138.390625 L 176.921875 138.390625 L 176.921875 171.726562 L 86.929688 171.726562 Z M 86.929688 138.390625 " clip-rule="nonzero"/></clipPath><clipPath id="c63097df3a"><path d="M 102.917969 143.058594 L 123.855469 143.058594 L 123.855469 163.996094 L 102.917969 163.996094 Z M 102.917969 143.058594 " clip-rule="nonzero"/></clipPath><clipPath id="81f00a807e"><path d="M 113.386719 143.058594 C 107.601562 143.058594 102.917969 147.746094 102.917969 153.527344 C 102.917969 159.308594 107.601562 163.996094 113.386719 163.996094 C 119.167969 163.996094 123.855469 159.308594 123.855469 153.527344 C 123.855469 147.746094 119.167969 143.058594 113.386719 143.058594 Z M 113.386719 143.058594 " clip-rule="nonzero"/></clipPath><clipPath id="331f7a3db2"><path d="M 136.511719 143.058594 L 157.453125 143.058594 L 157.453125 163.996094 L 136.511719 163.996094 Z M 136.511719 143.058594 " clip-rule="nonzero"/></clipPath><clipPath id="8e5562c830"><path d="M 146.984375 143.058594 C 141.199219 143.058594 136.511719 147.746094 136.511719 153.527344 C 136.511719 159.308594 141.199219 163.996094 146.984375 163.996094 C 152.765625 163.996094 157.453125 159.308594 157.453125 153.527344 C 157.453125 147.746094 152.765625 143.058594 146.984375 143.058594 Z M 146.984375 143.058594 " clip-rule="nonzero"/></clipPath></defs><g clip-path="url(#711a33e18f)"><path fill="#fbeb78" d="M 81.113281 224.273438 L 114.820312 224.273438 L 114.820312 281.941406 L 81.113281 281.941406 Z M 81.113281 224.273438 " fill-opacity="1" fill-rule="nonzero"/></g><g clip-path="url(#a562654405)"><g clip-path="url(#9813f86542)"><path fill="#df3821" d="M 187.5 138.390625 L 240.671875 138.390625 L 240.671875 191.5625 L 187.5 191.5625 Z M 187.5 138.390625 " fill-opacity="1" fill-rule="nonzero"/></g></g><g clip-path="url(#7b18d52dac)"><path fill="#b9e185" d="M 271.949219 218.398438 L 325.179688 218.398438 L 325.179688 253.074219 L 271.949219 253.074219 Z M 271.949219 218.398438 " fill-opacity="1" fill-rule="nonzero"/></g><g fill="#000000" fill-opacity="1"><g transform="translate(89.809071, 262.217605)"><g><path d="M 20.28125 0.9375 C 15.882812 0.9375 12.523438 -0.25 10.203125 -2.625 C 7.890625 -5.007812 6.734375 -8.625 6.734375 -13.46875 L 6.734375 -68.453125 L 19 -68.453125 L 19 -13.953125 C 19 -10.960938 20.238281 -9.46875 22.71875 -9.46875 C 23.425781 -9.46875 24.175781 -9.585938 24.96875 -9.828125 L 25.59375 -9.65625 L 26.703125 -0.21875 C 26.023438 0.132812 25.125 0.414062 24 0.625 C 22.875 0.832031 21.632812 0.9375 20.28125 0.9375 Z M 20.28125 0.9375 "/></g></g></g><g fill="#000000" fill-opacity="1"><g transform="translate(112.891589, 262.217605)"><g><path d="M 48.265625 -21.65625 L 16.875 -21.65625 C 17.226562 -17.40625 18.4375 -14.3125 20.5 -12.375 C 22.570312 -10.4375 25.390625 -9.46875 28.953125 -9.46875 C 31.765625 -9.46875 34.039062 -9.992188 35.78125 -11.046875 C 37.519531 -12.097656 38.921875 -13.6875 39.984375 -15.8125 L 40.921875 -15.8125 L 49.0625 -10.578125 C 47.46875 -7.160156 45.0625 -4.382812 41.84375 -2.25 C 38.625 -0.125 34.328125 0.9375 28.953125 0.9375 C 23.910156 0.9375 19.550781 -0.0195312 15.875 -1.9375 C 12.195312 -3.863281 9.363281 -6.722656 7.375 -10.515625 C 5.382812 -14.304688 4.390625 -18.9375 4.390625 -24.40625 C 4.390625 -29.945312 5.4375 -34.617188 7.53125 -38.421875 C 9.625 -42.234375 12.457031 -45.078125 16.03125 -46.953125 C 19.601562 -48.828125 23.617188 -49.765625 28.078125 -49.765625 C 34.984375 -49.765625 40.273438 -47.9375 43.953125 -44.28125 C 47.628906 -40.625 49.46875 -35.25 49.46875 -28.15625 C 49.46875 -25.59375 49.378906 -23.601562 49.203125 -22.1875 Z M 37.734375 -29.578125 C 37.609375 -33.296875 36.738281 -36.003906 35.125 -37.703125 C 33.519531 -39.398438 31.171875 -40.25 28.078125 -40.25 C 21.878906 -40.25 18.234375 -36.691406 17.140625 -29.578125 Z M 37.734375 -29.578125 "/></g></g></g><g fill="#000000" fill-opacity="1"><g transform="translate(160.989542, 262.217605)"><g><path d="M 19.046875 0.9375 C 15.910156 0.9375 13.191406 0.359375 10.890625 -0.796875 C 8.585938 -1.953125 6.816406 -3.640625 5.578125 -5.859375 C 4.335938 -8.085938 3.71875 -10.769531 3.71875 -13.90625 C 3.71875 -16.800781 4.335938 -19.226562 5.578125 -21.1875 C 6.816406 -23.15625 8.734375 -24.765625 11.328125 -26.015625 C 13.929688 -27.265625 17.328125 -28.234375 21.515625 -28.921875 C 24.441406 -29.390625 26.664062 -29.90625 28.1875 -30.46875 C 29.707031 -31.03125 30.734375 -31.664062 31.265625 -32.375 C 31.796875 -33.082031 32.0625 -33.984375 32.0625 -35.078125 C 32.0625 -36.640625 31.515625 -37.832031 30.421875 -38.65625 C 29.328125 -39.476562 27.507812 -39.890625 24.96875 -39.890625 C 22.257812 -39.890625 19.675781 -39.285156 17.21875 -38.078125 C 14.769531 -36.867188 12.644531 -35.273438 10.84375 -33.296875 L 9.96875 -33.296875 L 4.828125 -41.046875 C 7.304688 -43.796875 10.332031 -45.9375 13.90625 -47.46875 C 17.476562 -49 21.375 -49.765625 25.59375 -49.765625 C 32.0625 -49.765625 36.738281 -48.390625 39.625 -45.640625 C 42.519531 -42.898438 43.96875 -39.007812 43.96875 -33.96875 L 43.96875 -12.75 C 43.96875 -10.5625 44.925781 -9.46875 46.84375 -9.46875 C 47.582031 -9.46875 48.304688 -9.601562 49.015625 -9.875 L 49.640625 -9.703125 L 50.53125 -1.15625 C 49.84375 -0.707031 48.894531 -0.34375 47.6875 -0.0625 C 46.476562 0.21875 45.148438 0.359375 43.703125 0.359375 C 40.785156 0.359375 38.503906 -0.203125 36.859375 -1.328125 C 35.222656 -2.453125 34.050781 -4.207031 33.34375 -6.59375 L 32.40625 -6.6875 C 30.019531 -1.601562 25.566406 0.9375 19.046875 0.9375 Z M 22.9375 -8.234375 C 25.769531 -8.234375 28.035156 -9.1875 29.734375 -11.09375 C 31.429688 -13 32.28125 -15.648438 32.28125 -19.046875 L 32.28125 -24 L 31.4375 -24.171875 C 30.695312 -23.585938 29.726562 -23.09375 28.53125 -22.6875 C 27.34375 -22.289062 25.625 -21.898438 23.375 -21.515625 C 20.71875 -21.078125 18.804688 -20.316406 17.640625 -19.234375 C 16.472656 -18.160156 15.890625 -16.632812 15.890625 -14.65625 C 15.890625 -12.5625 16.507812 -10.96875 17.75 -9.875 C 18.988281 -8.78125 20.71875 -8.234375 22.9375 -8.234375 Z M 22.9375 -8.234375 "/></g></g></g><g fill="#000000" fill-opacity="1"><g transform="translate(207.493591, 262.217605)"><g><path d="M 7.046875 0 L 7.046875 -48.84375 L 18.953125 -48.84375 L 18.953125 -41.578125 L 19.875 -41.40625 C 21.0625 -44.125 22.613281 -46.113281 24.53125 -47.375 C 26.445312 -48.644531 28.78125 -49.28125 31.53125 -49.28125 C 34.300781 -49.28125 36.410156 -48.8125 37.859375 -47.875 L 35.78125 -37.28125 L 34.84375 -37.109375 C 34.050781 -37.429688 33.285156 -37.664062 32.546875 -37.8125 C 31.804688 -37.957031 30.90625 -38.03125 29.84375 -38.03125 C 26.414062 -38.03125 23.800781 -36.828125 22 -34.421875 C 20.207031 -32.015625 19.3125 -28.15625 19.3125 -22.84375 L 19.3125 0 Z M 7.046875 0 "/></g></g></g><g fill="#000000" fill-opacity="1"><g transform="translate(240.803661, 262.217605)"><g><path d="M 7.046875 0 L 7.046875 -48.84375 L 18.8125 -48.84375 L 18.8125 -41.671875 L 19.75 -41.453125 C 22.789062 -46.992188 27.722656 -49.765625 34.546875 -49.765625 C 40.179688 -49.765625 44.316406 -48.226562 46.953125 -45.15625 C 49.597656 -42.09375 50.921875 -37.625 50.921875 -31.75 L 50.921875 0 L 38.65625 0 L 38.65625 -30.25 C 38.65625 -33.488281 38.003906 -35.820312 36.703125 -37.25 C 35.410156 -38.6875 33.332031 -39.40625 30.46875 -39.40625 C 26.957031 -39.40625 24.21875 -38.269531 22.25 -36 C 20.289062 -33.726562 19.3125 -30.15625 19.3125 -25.28125 L 19.3125 0 Z M 7.046875 0 "/></g></g></g><g fill="#000000" fill-opacity="1"><g transform="translate(103.187464, 198.739809)"><g><path d="M 28.390625 0.9375 C 23.597656 0.9375 19.394531 -0.0390625 15.78125 -2 C 12.164062 -3.96875 9.363281 -6.847656 7.375 -10.640625 C 5.382812 -14.441406 4.390625 -19.03125 4.390625 -24.40625 C 4.390625 -29.769531 5.382812 -34.351562 7.375 -38.15625 C 9.363281 -41.96875 12.164062 -44.851562 15.78125 -46.8125 C 19.394531 -48.78125 23.597656 -49.765625 28.390625 -49.765625 C 33.171875 -49.765625 37.367188 -48.78125 40.984375 -46.8125 C 44.597656 -44.851562 47.40625 -41.96875 49.40625 -38.15625 C 51.414062 -34.351562 52.421875 -29.769531 52.421875 -24.40625 C 52.421875 -19.03125 51.414062 -14.441406 49.40625 -10.640625 C 47.40625 -6.847656 44.597656 -3.96875 40.984375 -2 C 37.367188 -0.0390625 33.171875 0.9375 28.390625 0.9375 Z M 28.390625 -9.46875 C 35.972656 -9.46875 39.765625 -14.445312 39.765625 -24.40625 C 39.765625 -29.5625 38.789062 -33.34375 36.84375 -35.75 C 34.894531 -38.15625 32.078125 -39.359375 28.390625 -39.359375 C 20.796875 -39.359375 17 -34.375 17 -24.40625 C 17 -14.445312 20.796875 -9.46875 28.390625 -9.46875 Z M 28.390625 -9.46875 "/></g></g></g><g clip-path="url(#9a742f6f33)"><path fill="#ffffff" d="M 86.929688 138.390625 L 176.914062 138.390625 L 176.914062 171.726562 L 86.929688 171.726562 Z M 86.929688 138.390625 " fill-opacity="1" fill-rule="nonzero"/></g><g clip-path="url(#c63097df3a)"><g clip-path="url(#81f00a807e)"><path fill="#648dcb" d="M 102.917969 143.058594 L 123.855469 143.058594 L 123.855469 163.996094 L 102.917969 163.996094 Z M 102.917969 143.058594 " fill-opacity="1" fill-rule="nonzero"/></g></g><g clip-path="url(#331f7a3db2)"><g clip-path="url(#8e5562c830)"><path fill="#648dcb" d="M 136.511719 143.058594 L 157.453125 143.058594 L 157.453125 163.996094 L 136.511719 163.996094 Z M 136.511719 143.058594 " fill-opacity="1" fill-rule="nonzero"/></g></g><g fill="#000000" fill-opacity="1"><g transform="translate(157.451977, 186.485622)"><g><path d="M 7.046875 19.796875 L 7.046875 -48.84375 L 19.3125 -48.84375 L 19.3125 -42.46875 L 20.234375 -42.28125 C 21.679688 -44.769531 23.613281 -46.640625 26.03125 -47.890625 C 28.457031 -49.140625 31.296875 -49.765625 34.546875 -49.765625 C 38.460938 -49.765625 41.890625 -48.832031 44.828125 -46.96875 C 47.765625 -45.113281 50.050781 -42.289062 51.6875 -38.5 C 53.332031 -34.707031 54.15625 -30.007812 54.15625 -24.40625 C 54.15625 -18.820312 53.289062 -14.140625 51.5625 -10.359375 C 49.832031 -6.578125 47.429688 -3.75 44.359375 -1.875 C 41.296875 0 37.753906 0.9375 33.734375 0.9375 C 30.703125 0.9375 28.078125 0.425781 25.859375 -0.59375 C 23.640625 -1.613281 21.765625 -3.203125 20.234375 -5.359375 L 19.3125 -5.1875 L 19.3125 19.796875 Z M 30.328125 -9.46875 C 33.992188 -9.46875 36.769531 -10.664062 38.65625 -13.0625 C 40.539062 -15.457031 41.484375 -19.238281 41.484375 -24.40625 C 41.484375 -29.5625 40.539062 -33.34375 38.65625 -35.75 C 36.769531 -38.15625 33.992188 -39.359375 30.328125 -39.359375 C 26.910156 -39.359375 24.195312 -38.117188 22.1875 -35.640625 C 20.175781 -33.160156 19.171875 -29.414062 19.171875 -24.40625 C 19.171875 -19.414062 20.175781 -15.675781 22.1875 -13.1875 C 24.195312 -10.707031 26.910156 -9.46875 30.328125 -9.46875 Z M 30.328125 -9.46875 "/></g></g></g></svg>